<svg width="16" height="16" viewBox="0 0 16 16" fill="none" xmlns="http://www.w3.org/2000/svg">
<path d="M9.08203 6.40039C8.67598 6.40039 8.36133 6.71504 8.36133 7.10352C8.36133 7.49199 8.67598 7.80664 9.08203 7.80664C9.45293 7.80664 9.76758 7.49199 9.76758 7.10352C9.76758 6.71504 9.45293 6.40039 9.08203 6.40039ZM4.16016 6.40039C3.7541 6.40039 3.43945 6.71504 3.43945 7.10352C3.43945 7.49199 3.7541 7.80664 4.16016 7.80664C4.53105 7.80664 4.8457 7.49199 4.8457 7.10352C4.8457 6.71504 4.53105 6.40039 4.16016 6.40039Z" fill="#1DBFCC"/>
<path d="M14.7244 5.06427C13.8789 3.90411 12.6976 3.12891 11.4021 2.77911V2.78087C11.1015 2.44688 10.7623 2.13926 10.3826 1.86504C7.50503 -0.226753 3.46558 0.411333 1.365 3.28887C-0.327773 5.62677 -0.255703 8.77149 1.47047 11.0057L1.48453 13.3365C1.48453 13.3928 1.49332 13.449 1.5109 13.5018C1.60406 13.7988 1.92047 13.9623 2.21578 13.8692L4.44117 13.1678C5.03003 13.377 5.63824 13.4965 6.24292 13.5299L6.23414 13.5369C7.80034 14.6777 9.85347 15.0205 11.7361 14.3983L13.9703 15.126C14.0265 15.1436 14.0845 15.1541 14.1443 15.1541C14.4554 15.1541 14.7068 14.9027 14.7068 14.5916V12.2361C16.2554 10.1338 16.2958 7.22813 14.7244 5.06427ZM4.68726 11.9197L4.47632 11.8318L2.73609 12.3768L2.71851 10.5486L2.57789 10.3904C1.09078 8.57638 0.992343 5.96251 2.38453 4.04473C4.07906 1.7209 7.32749 1.20762 9.64429 2.88458C11.9681 4.57384 12.4832 7.817 10.8044 10.1268C9.39644 12.0586 6.87574 12.7723 4.68726 11.9197ZM13.5642 11.6209L13.4236 11.7967L13.4412 13.6248L11.7185 13.0447L11.5076 13.1326C10.5232 13.4983 9.47378 13.5281 8.50171 13.2557L8.4982 13.2539C9.79722 12.8549 10.975 12.0463 11.824 10.8826C13.1669 9.03165 13.3849 6.70606 12.6044 4.72325L12.615 4.73028C13.0193 5.02032 13.3902 5.38243 13.7048 5.82013C14.981 7.57091 14.9089 9.9545 13.5642 11.6209Z" fill="#1DBFCC"/>
<path d="M6.62109 6.40039C6.21504 6.40039 5.90039 6.71504 5.90039 7.10352C5.90039 7.49199 6.21504 7.80664 6.62109 7.80664C6.99199 7.80664 7.30664 7.49199 7.30664 7.10352C7.30664 6.71504 6.99199 6.40039 6.62109 6.40039Z" fill="#1DBFCC"/>
</svg>
